<svg width="591" height="525" viewBox="0 0 591 525" fill="none" xmlns="http://www.w3.org/2000/svg">
<path d="M0.958679 0.433422C28.2827 1.08142 55.2227 1.49607 81.0093 2.86807C105.052 4.14541 126.843 6.16003 145.428 10.012C161.377 13.32 174.433 18.0801 183.44 24.2521C191.337 29.6668 196.289 36.4014 200.072 42.9094C207.248 55.2547 216.651 68.04 235.769 73.672C261.705 81.2934 298.1 82.008 339.472 82.7973C360.956 83.216 382.084 83.4601 402.109 84.3361C420.417 85.1268 436.515 86.3587 449.624 88.9267C460.115 90.9947 468.179 94.048 471.972 98.2267C475.191 101.775 475.259 106.383 474.503 110.635C473.028 118.928 474.204 128.107 485.417 131.628C493.596 134.2 504.568 135.472 517.575 136.349C532.453 137.353 548.863 137.693 566.22 137.969C574.067 251.109 582.207 367.467 590.512 487.187C553.833 487.432 520.767 487.424 495.452 488.563C486.36 488.977 479.645 489.413 475.467 490.468C473.097 491.067 472.371 492.357 473.056 493.293C473.861 494.385 474.967 495.688 473.98 496.512C472.211 498.003 467.171 498.656 459.72 499.301C449.247 500.199 435.615 500.676 419.087 501.031C400.069 501.451 379.124 501.621 356.953 501.792C311.913 502.12 270.451 502.177 236.72 503.755C223.353 504.369 212.361 505.224 203.711 506.572C196.889 507.643 191.613 509.163 187.352 510.833C183.26 512.432 178.829 514.347 172.967 515.792C165.351 517.664 154.995 519.069 141.649 520.163C125.096 521.512 105.215 522.321 82.3107 522.893C56.8333 523.528 29.3773 523.808 0.665344 524.071C0.734678 432.044 0.797342 342 0.817342 253.877C0.866675 167.615 0.893346 83.1521 0.958679 0.433422Z" fill="#4298ce"/>
<path d="M0.817342 253.876C28.924 254.091 56.2107 254.289 81.952 254.965C105.504 255.584 126.356 256.548 144.039 258.343C158.612 259.823 170.177 261.82 178.632 264.599C185.239 266.773 189.929 269.655 193.835 272.297C201.629 277.577 214.735 282.113 235.828 284.011C249.784 285.263 266.107 285.884 284.503 286.279C304.629 286.712 325.996 286.827 347.991 286.952C369.923 287.077 391.068 287.189 410.708 287.616C428.219 287.996 443.124 288.561 455.016 289.759C463.945 290.661 470.343 291.755 473.271 293.813C475.131 295.12 474.657 297.216 473.792 298.912C472.949 300.56 472.537 302.495 474.229 303.615C476.859 305.356 482.387 306.181 489.943 306.865C499.873 307.763 512.187 308.16 526.591 308.425C542.724 308.724 560.097 308.795 578.105 308.876C582.188 367.467 586.341 426.896 590.512 487.187C553.833 487.432 520.767 487.424 495.452 488.563C486.36 488.977 479.645 489.413 475.467 490.468C473.097 491.067 472.371 492.357 473.056 493.293C473.861 494.385 474.967 495.688 473.98 496.512C472.211 498.003 467.171 498.656 459.72 499.301C449.247 500.199 435.615 500.676 419.087 501.031C400.069 501.451 379.124 501.621 356.953 501.792C311.913 502.12 270.451 502.177 236.72 503.755C223.353 504.369 212.361 505.224 203.711 506.572C196.889 507.643 191.613 509.163 187.352 510.833C183.26 512.432 178.829 514.347 172.967 515.792C165.351 517.664 154.995 519.069 141.649 520.163C125.096 521.512 105.215 522.321 82.3107 522.893C56.8333 523.528 29.3773 523.808 0.665344 524.071C0.734678 432.043 0.761342 342 0.817342 253.876Z" fill="#F7D016"/>
</svg>
